<svg id="visual" viewBox="0 0 900 600" width="900" height="600" xmlns="http://www.w3.org/2000/svg" xmlns:xlink="http://www.w3.org/1999/xlink" version="1.1"><g stroke-width="1" stroke-linejoin="bevel"><path d="M513 298L503 374L570 324Z" fill="#246688" stroke="#246688"></path><path d="M503 374L601 392L570 324Z" fill="#15384f" stroke="#15384f"></path><path d="M395 335L424 385L503 374Z" fill="#246688" stroke="#246688"></path><path d="M503 374L578 523L601 392Z" fill="#081a28" stroke="#081a28"></path><path d="M717 318L593 234L570 324Z" fill="#19435d" stroke="#19435d"></path><path d="M570 324L593 234L513 298Z" fill="#112e42" stroke="#112e42"></path><path d="M409 210L395 335L513 298Z" fill="#1d4e6b" stroke="#1d4e6b"></path><path d="M513 298L395 335L503 374Z" fill="#0c2435" stroke="#0c2435"></path><path d="M593 234L514 176L513 298Z" fill="#081a28" stroke="#081a28"></path><path d="M514 176L409 210L513 298Z" fill="#277297" stroke="#277297"></path><path d="M601 392L717 318L570 324Z" fill="#0c2435" stroke="#0c2435"></path><path d="M593 234L564 76L514 176Z" fill="#297ea6" stroke="#297ea6"></path><path d="M476 538L578 523L503 374Z" fill="#0c2435" stroke="#0c2435"></path><path d="M601 392L733 360L717 318Z" fill="#1d4e6b" stroke="#1d4e6b"></path><path d="M761 462L733 360L601 392Z" fill="#297ea6" stroke="#297ea6"></path><path d="M367 522L476 538L424 385Z" fill="#19435d" stroke="#19435d"></path><path d="M424 385L476 538L503 374Z" fill="#1d4e6b" stroke="#1d4e6b"></path><path d="M795 309L718 230L717 318Z" fill="#0c2435" stroke="#0c2435"></path><path d="M717 318L718 230L593 234Z" fill="#15384f" stroke="#15384f"></path><path d="M409 210L314 290L395 335Z" fill="#277297" stroke="#277297"></path><path d="M334 518L367 522L424 385Z" fill="#15384f" stroke="#15384f"></path><path d="M409 210L336 205L314 290Z" fill="#112e42" stroke="#112e42"></path><path d="M402 85L336 205L409 210Z" fill="#277297" stroke="#277297"></path><path d="M275 408L424 385L395 335Z" fill="#1d4e6b" stroke="#1d4e6b"></path><path d="M564 76L461 101L514 176Z" fill="#19435d" stroke="#19435d"></path><path d="M514 176L461 101L409 210Z" fill="#15384f" stroke="#15384f"></path><path d="M582 600L714 513L578 523Z" fill="#112e42" stroke="#112e42"></path><path d="M578 523L714 513L601 392Z" fill="#15384f" stroke="#15384f"></path><path d="M396 600L506 600L476 538Z" fill="#112e42" stroke="#112e42"></path><path d="M476 538L506 600L578 523Z" fill="#277297" stroke="#277297"></path><path d="M714 513L761 462L601 392Z" fill="#205a7a" stroke="#205a7a"></path><path d="M733 360L795 309L717 318Z" fill="#246688" stroke="#246688"></path><path d="M212 310L275 408L314 290Z" fill="#0c2435" stroke="#0c2435"></path><path d="M314 290L275 408L395 335Z" fill="#246688" stroke="#246688"></path><path d="M275 408L334 518L424 385Z" fill="#205a7a" stroke="#205a7a"></path><path d="M367 522L396 600L476 538Z" fill="#081a28" stroke="#081a28"></path><path d="M713 130L564 76L593 234Z" fill="#205a7a" stroke="#205a7a"></path><path d="M506 600L582 600L578 523Z" fill="#1d4e6b" stroke="#1d4e6b"></path><path d="M830 397L795 309L733 360Z" fill="#19435d" stroke="#19435d"></path><path d="M830 175L713 130L718 230Z" fill="#15384f" stroke="#15384f"></path><path d="M718 230L713 130L593 234Z" fill="#297ea6" stroke="#297ea6"></path><path d="M396 0L402 85L461 101Z" fill="#15384f" stroke="#15384f"></path><path d="M461 101L402 85L409 210Z" fill="#19435d" stroke="#19435d"></path><path d="M334 518L396 600L367 522Z" fill="#15384f" stroke="#15384f"></path><path d="M761 462L830 397L733 360Z" fill="#297ea6" stroke="#297ea6"></path><path d="M900 383L830 397L900 473Z" fill="#297ea6" stroke="#297ea6"></path><path d="M179 165L212 310L336 205Z" fill="#205a7a" stroke="#205a7a"></path><path d="M336 205L212 310L314 290Z" fill="#277297" stroke="#277297"></path><path d="M164 490L269 600L334 518Z" fill="#205a7a" stroke="#205a7a"></path><path d="M396 0L339 78L402 85Z" fill="#0c2435" stroke="#0c2435"></path><path d="M402 85L339 78L336 205Z" fill="#1d4e6b" stroke="#1d4e6b"></path><path d="M582 600L724 600L714 513Z" fill="#081a28" stroke="#081a28"></path><path d="M714 513L806 600L761 462Z" fill="#297ea6" stroke="#297ea6"></path><path d="M586 0L527 0L564 76Z" fill="#1d4e6b" stroke="#1d4e6b"></path><path d="M564 76L527 0L461 101Z" fill="#112e42" stroke="#112e42"></path><path d="M795 309L830 175L718 230Z" fill="#205a7a" stroke="#205a7a"></path><path d="M719 0L586 0L564 76Z" fill="#246688" stroke="#246688"></path><path d="M900 231L830 175L795 309Z" fill="#19435d" stroke="#19435d"></path><path d="M719 0L564 76L713 130Z" fill="#277297" stroke="#277297"></path><path d="M92 277L170 383L212 310Z" fill="#0c2435" stroke="#0c2435"></path><path d="M212 310L170 383L275 408Z" fill="#246688" stroke="#246688"></path><path d="M334 518L269 600L396 600Z" fill="#15384f" stroke="#15384f"></path><path d="M527 0L396 0L461 101Z" fill="#15384f" stroke="#15384f"></path><path d="M164 490L334 518L275 408Z" fill="#277297" stroke="#277297"></path><path d="M900 383L900 296L830 397Z" fill="#0c2435" stroke="#0c2435"></path><path d="M830 397L900 296L795 309Z" fill="#112e42" stroke="#112e42"></path><path d="M900 473L830 397L761 462Z" fill="#205a7a" stroke="#205a7a"></path><path d="M724 600L806 600L714 513Z" fill="#297ea6" stroke="#297ea6"></path><path d="M900 296L900 231L795 309Z" fill="#277297" stroke="#277297"></path><path d="M824 66L713 130L830 175Z" fill="#112e42" stroke="#112e42"></path><path d="M824 66L719 0L713 130Z" fill="#246688" stroke="#246688"></path><path d="M206 106L336 205L339 78Z" fill="#112e42" stroke="#112e42"></path><path d="M206 106L179 165L336 205Z" fill="#1d4e6b" stroke="#1d4e6b"></path><path d="M806 600L900 473L761 462Z" fill="#00101c" stroke="#00101c"></path><path d="M115 477L164 490L170 383Z" fill="#081a28" stroke="#081a28"></path><path d="M170 383L164 490L275 408Z" fill="#1d4e6b" stroke="#1d4e6b"></path><path d="M396 0L322 0L339 78Z" fill="#19435d" stroke="#19435d"></path><path d="M322 0L206 106L339 78Z" fill="#1d4e6b" stroke="#1d4e6b"></path><path d="M900 117L824 66L830 175Z" fill="#15384f" stroke="#15384f"></path><path d="M900 0L794 0L824 66Z" fill="#081a28" stroke="#081a28"></path><path d="M824 66L794 0L719 0Z" fill="#297ea6" stroke="#297ea6"></path><path d="M900 231L900 117L830 175Z" fill="#00101c" stroke="#00101c"></path><path d="M67 371L115 477L170 383Z" fill="#1d4e6b" stroke="#1d4e6b"></path><path d="M164 490L174 600L269 600Z" fill="#081a28" stroke="#081a28"></path><path d="M115 600L174 600L164 490Z" fill="#19435d" stroke="#19435d"></path><path d="M75 184L92 277L179 165Z" fill="#0c2435" stroke="#0c2435"></path><path d="M179 165L92 277L212 310Z" fill="#112e42" stroke="#112e42"></path><path d="M806 600L900 600L900 473Z" fill="#00101c" stroke="#00101c"></path><path d="M92 277L67 371L170 383Z" fill="#081a28" stroke="#081a28"></path><path d="M93 78L75 184L179 165Z" fill="#15384f" stroke="#15384f"></path><path d="M0 260L0 372L67 371Z" fill="#205a7a" stroke="#205a7a"></path><path d="M93 78L179 165L206 106Z" fill="#277297" stroke="#277297"></path><path d="M0 479L115 600L115 477Z" fill="#205a7a" stroke="#205a7a"></path><path d="M115 477L115 600L164 490Z" fill="#112e42" stroke="#112e42"></path><path d="M322 0L166 0L206 106Z" fill="#19435d" stroke="#19435d"></path><path d="M900 117L900 0L824 66Z" fill="#277297" stroke="#277297"></path><path d="M166 0L93 78L206 106Z" fill="#15384f" stroke="#15384f"></path><path d="M0 260L67 371L92 277Z" fill="#205a7a" stroke="#205a7a"></path><path d="M67 371L0 479L115 477Z" fill="#00101c" stroke="#00101c"></path><path d="M0 260L92 277L75 184Z" fill="#00101c" stroke="#00101c"></path><path d="M0 212L0 260L75 184Z" fill="#205a7a" stroke="#205a7a"></path><path d="M0 60L0 212L75 184Z" fill="#19435d" stroke="#19435d"></path><path d="M0 372L0 479L67 371Z" fill="#277297" stroke="#277297"></path><path d="M166 0L61 0L93 78Z" fill="#246688" stroke="#246688"></path><path d="M93 78L0 60L75 184Z" fill="#246688" stroke="#246688"></path><path d="M0 479L0 600L115 600Z" fill="#15384f" stroke="#15384f"></path><path d="M61 0L0 60L93 78Z" fill="#081a28" stroke="#081a28"></path><path d="M61 0L0 0L0 60Z" fill="#00101c" stroke="#00101c"></path></g></svg>