<svg id="visual" viewBox="0 0 900 600" width="900" height="600" xmlns="http://www.w3.org/2000/svg" xmlns:xlink="http://www.w3.org/1999/xlink" version="1.1"><rect x="0" y="0" width="900" height="600" fill="#001220"></rect><path d="M567 600L570.7 585.7C574.3 571.3 581.7 542.7 592.2 514.2C602.7 485.7 616.3 457.3 615.7 428.8C615 400.3 600 371.7 596.7 343C593.3 314.3 601.7 285.7 607.7 257C613.7 228.3 617.3 199.7 610 171.2C602.7 142.7 584.3 114.3 583.3 85.8C582.3 57.3 598.7 28.7 606.8 14.3L615 0L900 0L900 14.3C900 28.7 900 57.3 900 85.8C900 114.3 900 142.7 900 171.2C900 199.7 900 228.3 900 257C900 285.7 900 314.3 900 343C900 371.7 900 400.3 900 428.8C900 457.3 900 485.7 900 514.2C900 542.7 900 571.3 900 585.7L900 600Z" fill="#ff6f61"></path><path d="M702 600L695 585.7C688 571.3 674 542.7 676.2 514.2C678.3 485.7 696.7 457.3 696 428.8C695.3 400.3 675.7 371.7 676.7 343C677.7 314.3 699.3 285.7 702.7 257C706 228.3 691 199.7 682.5 171.2C674 142.7 672 114.3 665 85.8C658 57.3 646 28.7 640 14.3L634 0L900 0L900 14.3C900 28.7 900 57.3 900 85.8C900 114.3 900 142.7 900 171.2C900 199.7 900 228.3 900 257C900 285.7 900 314.3 900 343C900 371.7 900 400.3 900 428.8C900 457.3 900 485.7 900 514.2C900 542.7 900 571.3 900 585.7L900 600Z" fill="#f35c62"></path><path d="M762 600L748 585.7C734 571.3 706 542.7 706.8 514.2C707.7 485.7 737.3 457.3 751 428.8C764.7 400.3 762.3 371.7 757.7 343C753 314.3 746 285.7 731 257C716 228.3 693 199.7 686.3 171.2C679.7 142.7 689.3 114.3 702.2 85.8C715 57.3 731 28.7 739 14.3L747 0L900 0L900 14.3C900 28.7 900 57.3 900 85.8C900 114.3 900 142.7 900 171.2C900 199.7 900 228.3 900 257C900 285.7 900 314.3 900 343C900 371.7 900 400.3 900 428.8C900 457.3 900 485.7 900 514.2C900 542.7 900 571.3 900 585.7L900 600Z" fill="#e64964"></path><path d="M724 600L736.3 585.7C748.7 571.3 773.3 542.7 776.7 514.2C780 485.7 762 457.3 760.5 428.8C759 400.3 774 371.7 778 343C782 314.3 775 285.7 779.5 257C784 228.3 800 199.7 800.7 171.2C801.3 142.7 786.7 114.3 772 85.8C757.3 57.3 742.7 28.7 735.3 14.3L728 0L900 0L900 14.3C900 28.7 900 57.3 900 85.8C900 114.3 900 142.7 900 171.2C900 199.7 900 228.3 900 257C900 285.7 900 314.3 900 343C900 371.7 900 400.3 900 428.8C900 457.3 900 485.7 900 514.2C900 542.7 900 571.3 900 585.7L900 600Z" fill="#d73666"></path><path d="M855 600L851.3 585.7C847.7 571.3 840.3 542.7 840 514.2C839.7 485.7 846.3 457.3 840.2 428.8C834 400.3 815 371.7 806 343C797 314.3 798 285.7 801.8 257C805.7 228.3 812.3 199.7 811.7 171.2C811 142.7 803 114.3 798.8 85.8C794.7 57.3 794.3 28.7 794.2 14.3L794 0L900 0L900 14.3C900 28.7 900 57.3 900 85.8C900 114.3 900 142.7 900 171.2C900 199.7 900 228.3 900 257C900 285.7 900 314.3 900 343C900 371.7 900 400.3 900 428.8C900 457.3 900 485.7 900 514.2C900 542.7 900 571.3 900 585.7L900 600Z" fill="#c62368"></path></svg>